<?xml version="1.0" encoding="utf-8"?>
<!-- Generator: Adobe Illustrator 21.0.0, SVG Export Plug-In . SVG Version: 6.00 Build 0)  -->
<svg version="1.1" id="图层_1" xmlns="http://www.w3.org/2000/svg" xmlns:xlink="http://www.w3.org/1999/xlink" x="0px" y="0px"
	 viewBox="0 0 200 200" style="enable-background:new 0 0 200 200;" xml:space="preserve">
<style type="text/css">
	.st0{fill:#999999;}
</style>
<path class="st0" d="M95.8,130.6c-4.8,0-9.5-0.9-13.9-2.8c-4.2-1.8-8.1-4.4-11.4-7.7c-3.3-3.3-5.9-7.1-7.7-11.4
	c-1.9-4.4-2.8-9.1-2.8-13.9s0.9-9.5,2.8-13.9c1.8-4.2,4.4-8.1,7.7-11.4c3.3-3.3,7.1-5.9,11.4-7.7C86.3,59.9,91,59,95.8,59
	s9.5,0.9,13.9,2.8c4.2,1.8,8.1,4.4,11.4,7.7c3.3,3.3,5.9,7.1,7.7,11.4c1.9,4.4,2.8,9.1,2.8,13.9s-0.9,9.5-2.8,13.9
	c-1.8,4.2-4.4,8.1-7.7,11.4c-3.3,3.3-7.1,5.9-11.4,7.7C105.3,129.6,100.6,130.6,95.8,130.6z M95.8,68.1c-7.1,0-13.8,2.8-18.8,7.8
	s-7.7,11.7-7.7,18.8s2.8,13.8,7.8,18.8c5,5,11.7,7.8,18.8,7.8c7.1,0,13.8-2.8,18.8-7.8c5-5,7.8-11.7,7.8-18.8s-2.8-13.8-7.8-18.8
	C109.6,70.9,102.9,68.1,95.8,68.1z M135.4,141c-1.2,0-2.4-0.5-3.2-1.4l-10.5-10.5c-1.8-1.8-1.8-4.7,0-6.5s4.7-1.8,6.5,0l10.5,10.5
	c1.8,1.8,1.8,4.7,0,6.5C137.7,140.6,136.6,141,135.4,141z"/>
</svg>
