<svg width="1024" height="1024" xmlns="http://www.w3.org/2000/svg" class="icon">
 <defs>
  <style type="text/css"/>
 </defs>
 <g>
  <title>background</title>
  <rect x="-1" y="-1" width="1026" height="1026" id="canvas_background" fill="none"/>
 </g>
 <g>
  <title>Layer 1</title>
  <path d="m851.332429,62.421678l-672.780847,0c-9.338692,-0.01535 -12.408611,8.043187 -17.530258,17.535375l-158.612461,282.94928c0,16.84055 17.530258,35.06768 17.530258,35.06768s464.709951,551.22128 472.932216,559.493687c8.126075,8.216125 19.517519,5.541203 24.865317,0.24457c5.250584,-5.297656 492.606301,-559.738257 492.606301,-559.738257s10.069333,-19.174712 10.106172,-35.06768l-153.49593,-282.95542c-3.554965,-6.224771 -9.246594,-17.609053 -15.620768,-17.529235l0,0zm-51.855019,264.006859l-294.671253,458.406384l-277.437753,-459.437876l-71.673389,-0.370437l-0.172939,-88.722694l216.186737,0.321318l175.214581,310.824141l203.734124,-310.61641l113.585965,0l0.172939,89.594551l-63.844074,-0.158612l-1.094938,0.159635zm0,40.932248" fill="#8f61ea" id="svg_1"/>
  <path fill="#ffffff" stroke-width="1.5" d="m155.5,236c0,0 -1,89 -1,89c0,0 74,0 73.5,0c0.5,0 276.5,459 276,459c0.5,0 296.5,-459 296,-459c0.5,0 63.5,1 63,1c0.5,0 0.5,-89 0,-89c0.5,0 -113.5,-1 -114,-1c0.5,0 -201.5,308 -201.5,308c0,0 -177,-308 -177,-308c0,0 -215,0 -215,0z" id="svg_2"/>
 </g>
</svg>