<svg width="1024" height="1024" xmlns="http://www.w3.org/2000/svg" class="icon">
 <defs>
  <style type="text/css"/>
 </defs>
 <g>
  <title>background</title>
  <rect x="-1" y="-1" width="1026" height="1026" id="canvas_background" fill="none"/>
 </g>
 <g>
  <title>Layer 1</title>
  <path d="m851.332429,62.421678l-672.780847,0c-9.338692,-0.01535 -12.408611,8.043187 -17.530258,17.535375l-158.612461,282.94928c0,16.84055 17.530258,35.06768 17.530258,35.06768s464.709951,551.22128 472.932216,559.493687c8.126075,8.216125 19.517519,5.541203 24.865317,0.24457c5.250584,-5.297656 492.606301,-559.738257 492.606301,-559.738257s10.069333,-19.174712 10.106172,-35.06768l-153.49593,-282.95542c-3.554965,-6.224771 -9.246594,-17.609053 -15.620768,-17.529235l0,0zm-51.855019,264.006859l-294.671253,458.406384l-277.437753,-459.437876l-71.673389,-0.370437l-0.172939,-88.722694l216.186737,0.321318l175.214581,310.824141l203.734124,-310.61641l113.585965,0l0.172939,89.594551l-63.844074,-0.158612l-1.094938,0.159635zm0,40.932248" fill="#a8a6a6" id="svg_1"/>
  <path fill="#a8a6a6" stroke-width="1.5" d="m116.655137,216.999973c0,0 -1.155175,110.762773 -1.155175,110.762773c0,0 85.482987,0 84.905399,0c0.577588,0 319.406025,571.237224 318.828437,571.237224c0.577588,0 342.509535,-571.237224 341.931947,-571.237224c0.577588,0 73.353644,1.244526 72.776056,1.244526c0.577588,0 0.577588,-110.762773 0,-110.762773c0.577588,0 -131.112419,-1.244526 -131.690007,-1.244526c0.577588,0 -232.767862,383.313867 -232.767862,383.313867c0,0 -204.466063,-383.313867 -204.466063,-383.313867c0,0 -248.362732,0 -248.362732,0z" id="svg_2"/>
  <rect id="svg_4" height="451" width="370" y="157" x="433.5" stroke-width="1.5" fill="#a8a6a6"/>
  <path stroke="null" transform="rotate(-90.00957489013672 511.0053100585937,425.2237243652343) " id="svg_3" d="m466.617678,570.056996c-10.461575,-8.054813 -9.089025,-12.932414 16.346195,-58.084766c12.843552,-22.799594 23.351821,-42.116383 23.351821,-42.926166c0,-0.809723 -35.465459,-1.47228 -78.812377,-1.47228l-78.812377,0l0,-42.701346l0,-42.701346l79.437007,0c61.250404,0 78.7532,-1.286378 76.450692,-5.618617c-1.642453,-3.090228 -12.846424,-23.596448 -24.897725,-45.569308c-22.71685,-41.419362 -22.70972,-52.527024 0.035099,-55.970005c11.319245,-1.713388 187.546426,129.934018 193.603709,144.628359c-58.699734,52.466822 -128.865809,107.386128 -193.500187,155.809352c-3.408027,0 -9.348782,-2.427239 -13.201843,-5.393877l-0.000013,0z" stroke-width="1.5" fill="#f7f7ef"/>
 </g>
</svg>